<?xml version="1.0" encoding="utf-8"?>
<!-- Svg Vector Icons : http://www.onlinewebfonts.com/icon -->
<!DOCTYPE svg PUBLIC "-//W3C//DTD SVG 1.1//EN" "http://www.w3.org/Graphics/SVG/1.1/DTD/svg11.dtd">
<svg version="1.1" xmlns="http://www.w3.org/2000/svg" xmlns:xlink="http://www.w3.org/1999/xlink" x="0px" y="0px" viewBox="0 0 1000 1000" enable-background="new 0 0 1000 1000" xml:space="preserve">
<metadata> Svg Vector Icons : http://www.onlinewebfonts.com/icon </metadata>
<g><path d="M990,577.4c0,21.4-17.3,38.7-38.7,38.7H538.7l0,0l0,0c-21.4,0-38.7-17.3-38.7-38.7V293.7c0-21.4,17.3-38.7,38.7-38.7c0,0,0.1,0,0.1,0h92.8c-1.5-4-2.6-8.3-2.6-12.9c0-21.4,17.3-38.7,38.7-38.7h154.7c21.4,0,38.7,17.3,38.7,38.7c0,4.6-1.2,8.8-2.6,12.9h92.8h0.1c21.4,0,38.7,17.3,38.7,38.7V577.4C990,577.3,990,577.3,990,577.4L990,577.4z M745,358.1c-35.6,0-64.5,28.9-64.5,64.5c0,35.6,28.9,64.5,64.5,64.5s64.5-28.9,64.5-64.5C809.5,387,780.6,358.1,745,358.1z M603.2,100.3H138.9c-28.5,0-51.6,23.1-51.6,51.6v515.8c0,28.5,23.1,51.6,51.6,51.6h464.2c28.5,0,51.6-23.1,51.6-51.6v0h77.4V874c0,56.9-46.2,103.1-103.2,103.1H113.2C56.2,977.1,10,930.9,10,874V126.1c0-57,46.2-103.2,103.2-103.2h515.8c57,0,103.2,46.2,103.2,103.2v25.7h-77.4C654.7,123.4,631.6,100.3,603.2,100.3z M332.4,873.9h103.2c21.4,0,38.7-17.3,38.7-38.7c0-21.4-17.3-38.7-38.7-38.7H332.4c-21.4,0-38.7,17.3-38.7,38.7C293.7,856.6,311,873.9,332.4,873.9z"/></g>
</svg>